# xmcd
#
# Track frame offsets: 
#        150
#        18000
#        39169
#        59194
#        76332
#        93575
#        112783
#        128751
#
# Disc length: 1889 seconds
#
# Revision: 0
# Processed by: cddbd v1.5.2PL0 Copyright (c) Steve Scherf et al.
# Submitted via: ExactAudioCopy v0.99pb5
#
DISCID=58075f08
DTITLE=Dumb - Paperwrists
DYEAR=2010
DGENRE=Hip-Hop
TTITLE0=Shotgun Karaoke
TTITLE1=Unhappy Love Songs
TTITLE2=Above
TTITLE3=A Parachute For Two
TTITLE4=Dead Bird
TTITLE5=Running With Scissors
TTITLE6=Lights On Lights Off
TTITLE7=Therapist
EXTD=
EXTT0=
EXTT1=
EXTT2=
EXTT3=
EXTT4=
EXTT5=
EXTT6=
EXTT7=
PLAYORDER=
